<svg xmlns="http://www.w3.org/2000/svg" version="1.1" xmlns:xlink="http://www.w3.org/1999/xlink" width="512" height="512" x="0" y="0" viewBox="0 0 491.5 491.5" style="enable-background:new 0 0 512 512" xml:space="preserve" class=""><g><path fill="#ff9a2c" d="M135.7 127.4c-1.7-.1-3.4-.2-5.1-.2-18.5 0-35.5 6.7-48.6 17.8 7.4 11.1 18.4 19.6 31.2 23.9 4.4-4.4 10.6-7.2 17.3-7.2 12.2 0 22.3 8.9 24.2 20.6.2 1.3.3 2.5.3 3.9 0 13.5-11 24.5-24.5 24.5-9.5 0-17.8-5.4-21.8-13.4-17.9-5-33.5-15.4-45.1-29.3-5.3 10.3-8.3 22-8.3 34.4 0 33.6 22 62.1 52.5 71.7V327l17.1 11-17.1 11v8.7l17.1 11-17.1 11v8.7l17.1 11-17.1 11v21.1l28.6 29.6 16.9-29.6V274.2c6.9-2.2 13.3-5.3 19.2-9.3 20.1-13.5 33.3-36.4 33.3-62.5 0-39.8-30.9-72.4-70.1-75z" opacity="1" data-original="#484848" class=""></path><path fill="#434343" d="M132.9 191.1c4 0 8.1-.3 12.1-.9.8-3.1.6-6.4-.5-9.3-3.8.6-7.7.9-11.6.9-39.1 0-70.8-31.7-70.8-70.8s31.7-70.8 70.8-70.8c24.5 0 46.9 12.6 59.7 32.8 3.2-.8 6.5-1.3 9.8-1.7-14.1-24.7-40.5-40.4-69.6-40.4-44.3 0-80.1 35.9-80.1 80.1.1 44.2 36 80.1 80.2 80.1z" opacity="1" data-original="#7b7b7b" class=""></path><path fill="#434343" d="M233.2 240.6c4.9-5.3 8.9-11.3 12-17.6 10.6-21.7 10.6-48.2-2.4-70.7-18.9-32.7-58.6-45.9-92.7-32.4 37.7 8.8 65.4 42.7 65.4 82.6 0 23.7-9.8 45.9-26.7 61.8l5.1-.9 26.4 45.8 20.3.9-9.3 18 4.3 7.5 20.3.9-9.3 18 4.3 7.5 20.3.9-9.3 18 10.5 18.2 39.5 11.3-.2-34.1z" opacity="1" data-original="#7b7b7b" class=""></path><path fill="#ff9a2c" d="m421.5 250.2-136-78.5c6.9-31.2-6.8-64.5-35.9-81.3C235 82 218.8 79 203.3 80.8c-19.3 2.3-37.5 12-50.2 27.9 37.2-11.2 78.2 4.6 97.9 38.8 11.8 20.5 14.5 44.7 7.7 66.9 1.3-1.1 2.7-2.2 3.9-3.3l45.8 26.4 18-9.3.9 20.3 7.5 4.3 18-9.3.9 20.3 7.5 4.3 18-9.3.9 20.3 18.2 10.5 39.9-10z" opacity="1" data-original="#484848" class=""></path></g></svg>